<svg width="305" height="109" viewBox="0 0 305 109" fill="none" xmlns="http://www.w3.org/2000/svg">
<rect width="305" height="109" rx="24" fill="black"/>
<path d="M98.62 32.8C100.687 32.8 102.293 33.3733 103.44 34.52C104.6 35.6533 105.18 37.28 105.18 39.4C105.18 41.52 104.6 43.1533 103.44 44.3C102.293 45.4333 100.687 46 98.62 46H93.96V32.8H98.62ZM98.62 44.18C100.02 44.18 101.087 43.7667 101.82 42.94C102.567 42.1 102.94 40.92 102.94 39.4C102.94 37.88 102.567 36.7067 101.82 35.88C101.087 35.04 100.02 34.62 98.62 34.62H96.1V44.18H98.62ZM112.395 35.8C113.368 35.8 114.228 36.0067 114.975 36.42C115.721 36.8333 116.301 37.4333 116.715 38.22C117.141 38.9933 117.355 39.92 117.355 41C117.355 42.08 117.141 43.0133 116.715 43.8C116.301 44.5733 115.721 45.1667 114.975 45.58C114.228 45.9933 113.368 46.2 112.395 46.2C111.421 46.2 110.561 45.9933 109.815 45.58C109.068 45.1667 108.481 44.5733 108.055 43.8C107.628 43.0133 107.415 42.08 107.415 41C107.415 39.92 107.628 38.9933 108.055 38.22C108.481 37.4333 109.068 36.8333 109.815 36.42C110.561 36.0067 111.421 35.8 112.395 35.8ZM112.395 37.48C111.795 37.48 111.281 37.62 110.855 37.9C110.441 38.1667 110.121 38.56 109.895 39.08C109.668 39.6 109.555 40.24 109.555 41C109.555 41.7467 109.668 42.3867 109.895 42.92C110.121 43.44 110.441 43.84 110.855 44.12C111.281 44.3867 111.795 44.52 112.395 44.52C112.995 44.52 113.501 44.3867 113.915 44.12C114.328 43.84 114.648 43.44 114.875 42.92C115.101 42.3867 115.215 41.7467 115.215 41C115.215 40.24 115.101 39.6 114.875 39.08C114.648 38.56 114.328 38.1667 113.915 37.9C113.501 37.62 112.995 37.48 112.395 37.48ZM132.474 36H134.794L131.434 46H129.094L126.574 38.58L124.194 46H121.854L118.514 36H120.814L123.094 43.9L125.574 36H127.714L130.194 43.9L132.474 36ZM136.863 46V36H138.763L138.903 38.6L138.623 38.32C138.81 37.7467 139.076 37.2733 139.423 36.9C139.783 36.5133 140.203 36.2333 140.683 36.06C141.176 35.8867 141.696 35.8 142.243 35.8C142.95 35.8 143.583 35.94 144.143 36.22C144.716 36.4867 145.17 36.8933 145.503 37.44C145.836 37.9867 146.003 38.68 146.003 39.52V46H143.863V40.18C143.863 39.1933 143.656 38.5133 143.243 38.14C142.843 37.7533 142.336 37.56 141.723 37.56C141.283 37.56 140.856 37.6667 140.443 37.88C140.03 38.08 139.683 38.4067 139.403 38.86C139.136 39.3133 139.003 39.92 139.003 40.68V46H136.863ZM151.326 31.5V43.2C151.326 43.6933 151.413 44.0333 151.586 44.22C151.759 44.4067 152.046 44.5 152.446 44.5C152.686 44.5 152.886 44.4867 153.046 44.46C153.219 44.42 153.433 44.3533 153.686 44.26L153.446 45.86C153.219 45.9667 152.959 46.0467 152.666 46.1C152.373 46.1667 152.079 46.2 151.786 46.2C150.893 46.2 150.233 45.9733 149.806 45.52C149.393 45.0533 149.186 44.34 149.186 43.38V31.5H151.326ZM159.816 35.8C160.79 35.8 161.65 36.0067 162.396 36.42C163.143 36.8333 163.723 37.4333 164.136 38.22C164.563 38.9933 164.776 39.92 164.776 41C164.776 42.08 164.563 43.0133 164.136 43.8C163.723 44.5733 163.143 45.1667 162.396 45.58C161.65 45.9933 160.79 46.2 159.816 46.2C158.843 46.2 157.983 45.9933 157.236 45.58C156.49 45.1667 155.903 44.5733 155.476 43.8C155.05 43.0133 154.836 42.08 154.836 41C154.836 39.92 155.05 38.9933 155.476 38.22C155.903 37.4333 156.49 36.8333 157.236 36.42C157.983 36.0067 158.843 35.8 159.816 35.8ZM159.816 37.48C159.216 37.48 158.703 37.62 158.276 37.9C157.863 38.1667 157.543 38.56 157.316 39.08C157.09 39.6 156.976 40.24 156.976 41C156.976 41.7467 157.09 42.3867 157.316 42.92C157.543 43.44 157.863 43.84 158.276 44.12C158.703 44.3867 159.216 44.52 159.816 44.52C160.416 44.52 160.923 44.3867 161.336 44.12C161.75 43.84 162.07 43.44 162.296 42.92C162.523 42.3867 162.636 41.7467 162.636 41C162.636 40.24 162.523 39.6 162.296 39.08C162.07 38.56 161.75 38.1667 161.336 37.9C160.923 37.62 160.416 37.48 159.816 37.48ZM173.229 39.58C173.229 38.9133 173.042 38.4 172.669 38.04C172.309 37.6667 171.809 37.48 171.169 37.48C170.569 37.48 170.056 37.62 169.629 37.9C169.202 38.18 168.889 38.6333 168.689 39.26L166.889 38.5C167.142 37.6867 167.636 37.0333 168.369 36.54C169.116 36.0467 170.076 35.8 171.249 35.8C172.049 35.8 172.756 35.9333 173.369 36.2C173.982 36.4533 174.462 36.84 174.809 37.36C175.169 37.88 175.349 38.5467 175.349 39.36V43.82C175.349 44.3133 175.596 44.56 176.089 44.56C176.329 44.56 176.562 44.5267 176.789 44.46L176.669 45.94C176.362 46.0867 175.976 46.16 175.509 46.16C175.082 46.16 174.696 46.0867 174.349 45.94C174.016 45.78 173.749 45.5467 173.549 45.24C173.362 44.92 173.269 44.5267 173.269 44.06V43.92L173.709 43.9C173.589 44.42 173.342 44.8533 172.969 45.2C172.596 45.5333 172.162 45.7867 171.669 45.96C171.176 46.12 170.676 46.2 170.169 46.2C169.542 46.2 168.976 46.1 168.469 45.9C167.976 45.7 167.582 45.4 167.289 45C167.009 44.5867 166.869 44.08 166.869 43.48C166.869 42.7333 167.109 42.12 167.589 41.64C168.082 41.16 168.776 40.8333 169.669 40.66L173.549 39.9L173.529 41.4L170.709 41.98C170.149 42.0867 169.729 42.24 169.449 42.44C169.169 42.64 169.029 42.9333 169.029 43.32C169.029 43.6933 169.169 43.9933 169.449 44.22C169.742 44.4333 170.129 44.54 170.609 44.54C170.942 44.54 171.262 44.5 171.569 44.42C171.889 44.34 172.176 44.2133 172.429 44.04C172.682 43.8533 172.876 43.62 173.009 43.34C173.156 43.0467 173.229 42.7 173.229 42.3V39.58ZM182.676 46.2C181.849 46.2 181.096 45.9933 180.416 45.58C179.749 45.1667 179.222 44.5733 178.836 43.8C178.449 43.0267 178.256 42.1 178.256 41.02C178.256 39.9 178.462 38.9533 178.876 38.18C179.289 37.4067 179.842 36.82 180.536 36.42C181.229 36.0067 181.989 35.8 182.816 35.8C183.669 35.8 184.389 36.0333 184.976 36.5C185.562 36.9667 185.956 37.5733 186.156 38.32L185.916 38.54V31.5H188.056V46H186.156L185.996 43.28L186.276 43.3C186.182 43.9 185.962 44.42 185.616 44.86C185.269 45.2867 184.836 45.62 184.316 45.86C183.809 46.0867 183.262 46.2 182.676 46.2ZM183.136 44.48C183.709 44.48 184.202 44.3333 184.616 44.04C185.029 43.7467 185.349 43.3333 185.576 42.8C185.802 42.2667 185.916 41.6267 185.916 40.88C185.916 40.1867 185.802 39.5933 185.576 39.1C185.349 38.5933 185.029 38.2067 184.616 37.94C184.216 37.6733 183.749 37.54 183.216 37.54C182.322 37.54 181.629 37.8467 181.136 38.46C180.642 39.0733 180.396 39.92 180.396 41C180.396 42.08 180.636 42.9333 181.116 43.56C181.596 44.1733 182.269 44.48 183.136 44.48ZM202.219 35.8C203.192 35.8 204.052 36.0067 204.799 36.42C205.545 36.8333 206.125 37.4333 206.539 38.22C206.965 38.9933 207.179 39.92 207.179 41C207.179 42.08 206.965 43.0133 206.539 43.8C206.125 44.5733 205.545 45.1667 204.799 45.58C204.052 45.9933 203.192 46.2 202.219 46.2C201.245 46.2 200.385 45.9933 199.639 45.58C198.892 45.1667 198.305 44.5733 197.879 43.8C197.452 43.0133 197.239 42.08 197.239 41C197.239 39.92 197.452 38.9933 197.879 38.22C198.305 37.4333 198.892 36.8333 199.639 36.42C200.385 36.0067 201.245 35.8 202.219 35.8ZM202.219 37.48C201.619 37.48 201.105 37.62 200.679 37.9C200.265 38.1667 199.945 38.56 199.719 39.08C199.492 39.6 199.379 40.24 199.379 41C199.379 41.7467 199.492 42.3867 199.719 42.92C199.945 43.44 200.265 43.84 200.679 44.12C201.105 44.3867 201.619 44.52 202.219 44.52C202.819 44.52 203.325 44.3867 203.739 44.12C204.152 43.84 204.472 43.44 204.699 42.92C204.925 42.3867 205.039 41.7467 205.039 41C205.039 40.24 204.925 39.6 204.699 39.08C204.472 38.56 204.152 38.1667 203.739 37.9C203.325 37.62 202.819 37.48 202.219 37.48ZM209.871 46V36H211.771L211.911 38.6L211.631 38.32C211.818 37.7467 212.084 37.2733 212.431 36.9C212.791 36.5133 213.211 36.2333 213.691 36.06C214.184 35.8867 214.704 35.8 215.251 35.8C215.958 35.8 216.591 35.94 217.151 36.22C217.724 36.4867 218.178 36.8933 218.511 37.44C218.844 37.9867 219.011 38.68 219.011 39.52V46H216.871V40.18C216.871 39.1933 216.664 38.5133 216.251 38.14C215.851 37.7533 215.344 37.56 214.731 37.56C214.291 37.56 213.864 37.6667 213.451 37.88C213.038 38.08 212.691 38.4067 212.411 38.86C212.144 39.3133 212.011 39.92 212.011 40.68V46H209.871ZM231.365 33.06V43C231.365 43.4933 231.492 43.8533 231.745 44.08C232.012 44.3067 232.365 44.42 232.805 44.42C233.165 44.42 233.478 44.3667 233.745 44.26C234.012 44.14 234.258 43.98 234.485 43.78L234.965 45.34C234.658 45.6067 234.278 45.82 233.825 45.98C233.385 46.1267 232.892 46.2 232.345 46.2C231.772 46.2 231.245 46.1067 230.765 45.92C230.285 45.7333 229.912 45.4333 229.645 45.02C229.378 44.5933 229.238 44.04 229.225 43.36V33.66L231.365 33.06ZM234.805 36V37.68H227.305V36H234.805ZM237 46V31.5H239.14V37.6C239.473 36.9733 239.92 36.52 240.48 36.24C241.053 35.9467 241.687 35.8 242.38 35.8C243.087 35.8 243.72 35.94 244.28 36.22C244.853 36.4867 245.307 36.8933 245.64 37.44C245.973 37.9867 246.14 38.68 246.14 39.52V46H244V40.2C244 39.2133 243.793 38.5267 243.38 38.14C242.98 37.7533 242.473 37.56 241.86 37.56C241.433 37.56 241.007 37.6667 240.58 37.88C240.167 38.08 239.82 38.4133 239.54 38.88C239.273 39.3333 239.14 39.9467 239.14 40.72V46H237ZM253.783 46.2C252.783 46.2 251.903 45.9933 251.143 45.58C250.383 45.1667 249.789 44.5733 249.363 43.8C248.949 43.0133 248.743 42.08 248.743 41C248.743 39.92 248.949 38.9933 249.363 38.22C249.789 37.4333 250.376 36.8333 251.123 36.42C251.869 36.0067 252.716 35.8 253.663 35.8C254.636 35.8 255.463 36 256.143 36.4C256.823 36.8 257.343 37.3467 257.703 38.04C258.063 38.7333 258.243 39.52 258.243 40.4C258.243 40.64 258.236 40.8667 258.223 41.08C258.209 41.2933 258.189 41.48 258.163 41.64H250.123V40H257.223L256.163 40.32C256.163 39.4133 255.936 38.72 255.483 38.24C255.029 37.7467 254.409 37.5 253.623 37.5C253.049 37.5 252.549 37.6333 252.123 37.9C251.696 38.1667 251.369 38.5667 251.143 39.1C250.916 39.62 250.803 40.26 250.803 41.02C250.803 41.7667 250.923 42.4 251.163 42.92C251.403 43.44 251.743 43.8333 252.183 44.1C252.623 44.3667 253.143 44.5 253.743 44.5C254.409 44.5 254.949 44.3733 255.363 44.12C255.776 43.8667 256.103 43.5133 256.343 43.06L258.043 43.86C257.803 44.34 257.476 44.76 257.063 45.12C256.663 45.4667 256.183 45.7333 255.623 45.92C255.063 46.1067 254.449 46.2 253.783 46.2ZM113.088 81H108.512L106.752 75.848H98.656L96.896 81H92.384L100.096 59.88H105.376L113.088 81ZM99.648 72.584H105.76L102.688 63.368L99.648 72.584ZM125.085 59.88C126.706 59.88 128.093 60.1573 129.245 60.712C130.397 61.2453 131.282 62.024 131.901 63.048C132.541 64.0507 132.861 65.2667 132.861 66.696C132.861 68.1253 132.541 69.352 131.901 70.376C131.282 71.3787 130.397 72.1573 129.245 72.712C128.093 73.2453 126.706 73.512 125.085 73.512H120.637V81H116.221V59.88H125.085ZM124.413 70.024C125.735 70.024 126.727 69.7467 127.389 69.192C128.05 68.616 128.381 67.784 128.381 66.696C128.381 65.5867 128.05 64.7547 127.389 64.2C126.727 63.6453 125.735 63.368 124.413 63.368H120.637V70.024H124.413ZM145.772 59.88C147.394 59.88 148.78 60.1573 149.932 60.712C151.084 61.2453 151.97 62.024 152.588 63.048C153.228 64.0507 153.548 65.2667 153.548 66.696C153.548 68.1253 153.228 69.352 152.588 70.376C151.97 71.3787 151.084 72.1573 149.932 72.712C148.78 73.2453 147.394 73.512 145.772 73.512H141.324V81H136.908V59.88H145.772ZM145.1 70.024C146.423 70.024 147.415 69.7467 148.076 69.192C148.738 68.616 149.068 67.784 149.068 66.696C149.068 65.5867 148.738 64.7547 148.076 64.2C147.415 63.6453 146.423 63.368 145.1 63.368H141.324V70.024H145.1ZM174.62 59.56C176.54 59.56 178.226 59.8907 179.676 60.552C181.127 61.2133 182.364 62.1947 183.388 63.496L180.924 66.344C180.05 65.2347 179.09 64.424 178.044 63.912C177.02 63.3787 175.826 63.112 174.46 63.112C173.564 63.112 172.818 63.2293 172.22 63.464C171.644 63.6987 171.218 64.008 170.94 64.392C170.684 64.776 170.556 65.2027 170.556 65.672C170.556 66.248 170.78 66.7387 171.228 67.144C171.676 67.528 172.444 67.848 173.532 68.104L177.468 69C179.559 69.4693 181.052 70.1733 181.948 71.112C182.866 72.0293 183.324 73.224 183.324 74.696C183.324 76.0827 182.962 77.2773 182.236 78.28C181.511 79.2613 180.498 80.0187 179.196 80.552C177.895 81.064 176.402 81.32 174.716 81.32C173.244 81.32 171.89 81.1493 170.652 80.808C169.436 80.4453 168.348 79.9547 167.388 79.336C166.428 78.7173 165.628 78.0027 164.988 77.192L167.484 74.216C167.975 74.8987 168.583 75.5067 169.308 76.04C170.034 76.5733 170.855 77 171.772 77.32C172.711 77.6187 173.692 77.768 174.716 77.768C175.591 77.768 176.327 77.672 176.924 77.48C177.543 77.2667 178.002 76.9787 178.3 76.616C178.62 76.232 178.78 75.7733 178.78 75.24C178.78 74.6853 178.588 74.216 178.204 73.832C177.842 73.4267 177.159 73.1173 176.156 72.904L171.868 71.944C170.631 71.6453 169.564 71.2613 168.668 70.792C167.794 70.3013 167.122 69.6827 166.652 68.936C166.204 68.168 165.98 67.2613 165.98 66.216C165.98 64.9573 166.322 63.8267 167.004 62.824C167.687 61.8213 168.668 61.032 169.948 60.456C171.25 59.8587 172.807 59.56 174.62 59.56ZM192.718 60.104V75.784C192.718 76.552 192.91 77.1173 193.294 77.48C193.699 77.8213 194.243 77.992 194.926 77.992C195.459 77.992 195.929 77.9173 196.334 77.768C196.739 77.5973 197.102 77.3733 197.422 77.096L198.126 80.008C197.614 80.4133 196.974 80.7333 196.206 80.968C195.438 81.2027 194.627 81.32 193.774 81.32C192.707 81.32 191.758 81.16 190.926 80.84C190.115 80.52 189.475 80.008 189.006 79.304C188.558 78.6 188.334 77.6613 188.334 76.488V61.32L192.718 60.104ZM197.838 65V68.264H185.39V65H197.838ZM208.1 64.68C209.721 64.68 211.14 65.0107 212.356 65.672C213.593 66.3333 214.553 67.2827 215.236 68.52C215.94 69.7573 216.292 71.2507 216.292 73C216.292 74.728 215.94 76.2213 215.236 77.48C214.553 78.7173 213.593 79.6667 212.356 80.328C211.14 80.9893 209.721 81.32 208.1 81.32C206.5 81.32 205.081 80.9893 203.844 80.328C202.607 79.6667 201.636 78.7173 200.932 77.48C200.249 76.2213 199.908 74.728 199.908 73C199.908 71.2507 200.249 69.7573 200.932 68.52C201.636 67.2827 202.607 66.3333 203.844 65.672C205.081 65.0107 206.5 64.68 208.1 64.68ZM208.1 67.944C207.289 67.944 206.596 68.136 206.02 68.52C205.465 68.8827 205.039 69.4373 204.74 70.184C204.441 70.9307 204.292 71.8693 204.292 73C204.292 74.1307 204.441 75.0693 204.74 75.816C205.039 76.5627 205.465 77.128 206.02 77.512C206.596 77.8747 207.289 78.056 208.1 78.056C208.889 78.056 209.561 77.8747 210.116 77.512C210.692 77.128 211.129 76.5627 211.428 75.816C211.727 75.0693 211.876 74.1307 211.876 73C211.876 71.8693 211.727 70.9307 211.428 70.184C211.129 69.4373 210.692 68.8827 210.116 68.52C209.561 68.136 208.889 67.944 208.1 67.944ZM219.96 81V65H223.768L224.056 68.136C224.483 67.0267 225.102 66.1733 225.912 65.576C226.744 64.9787 227.779 64.68 229.016 64.68C229.379 64.68 229.71 64.712 230.008 64.776C230.307 64.84 230.552 64.9253 230.744 65.032L230.232 68.712C230.019 68.6267 229.752 68.5627 229.432 68.52C229.134 68.4773 228.739 68.456 228.248 68.456C227.608 68.456 226.99 68.616 226.392 68.936C225.795 69.2347 225.304 69.704 224.92 70.344C224.536 70.9627 224.344 71.752 224.344 72.712V81H219.96ZM240.572 81.32C238.886 81.32 237.414 80.9893 236.156 80.328C234.918 79.6667 233.958 78.7173 233.276 77.48C232.593 76.2427 232.252 74.7493 232.252 73C232.252 71.2507 232.593 69.7573 233.276 68.52C233.958 67.2827 234.908 66.3333 236.124 65.672C237.361 65.0107 238.769 64.68 240.348 64.68C241.969 64.68 243.345 65.0107 244.476 65.672C245.606 66.312 246.47 67.1973 247.068 68.328C247.665 69.4373 247.964 70.7067 247.964 72.136C247.964 72.5627 247.953 72.968 247.932 73.352C247.91 73.736 247.878 74.0773 247.836 74.376H235.068V71.336H245.916L243.804 72.104C243.804 70.76 243.494 69.7253 242.876 69C242.278 68.2747 241.425 67.912 240.316 67.912C239.505 67.912 238.801 68.104 238.204 68.488C237.628 68.872 237.19 69.448 236.892 70.216C236.593 70.9627 236.444 71.912 236.444 73.064C236.444 74.1947 236.604 75.1333 236.924 75.88C237.265 76.6053 237.734 77.1493 238.332 77.512C238.95 77.8747 239.686 78.056 240.54 78.056C241.478 78.056 242.236 77.8747 242.812 77.512C243.388 77.1493 243.836 76.648 244.156 76.008L247.644 77.352C247.302 78.184 246.78 78.8987 246.076 79.496C245.393 80.0933 244.572 80.552 243.612 80.872C242.673 81.1707 241.66 81.32 240.572 81.32Z" fill="white"/>
<path d="M70.6613 76.1945C68.206 78.5693 65.5251 78.1943 62.9446 77.0694C60.2136 75.9196 57.7082 75.8696 54.827 77.0694C51.2192 78.6192 49.315 78.1693 47.1604 76.1945C34.9339 63.6211 36.7378 44.4736 50.6179 43.7736C54.0002 43.9486 56.3553 45.6234 58.3346 45.7734C61.291 45.1735 64.1221 43.4487 67.2789 43.6737C71.0621 43.9736 73.9183 45.4734 75.7974 48.1731C67.9805 52.8475 69.8345 63.1212 77 65.9958C75.5719 69.7454 73.7179 73.4699 70.6362 76.2195L70.6613 76.1945ZM58.084 43.6237C57.7082 38.0494 62.243 33.4499 67.4543 33C68.1809 39.4492 61.5916 44.2486 58.084 43.6237Z" fill="white"/>
</svg>
