<svg width="305" height="109" viewBox="0 0 305 109" fill="none" xmlns="http://www.w3.org/2000/svg">
<rect width="305" height="109" rx="24" fill="black"/>
<path d="M99.32 46.2C98.08 46.2 97.0067 45.9267 96.1 45.38C95.1933 44.8333 94.4867 44.06 93.98 43.06C93.4733 42.0467 93.22 40.8267 93.22 39.4C93.22 38 93.48 36.7933 94 35.78C94.5333 34.7667 95.28 33.9867 96.24 33.44C97.2133 32.88 98.3267 32.6 99.58 32.6C100.953 32.6 102.06 32.8533 102.9 33.36C103.753 33.8667 104.433 34.6533 104.94 35.72L102.96 36.66C102.707 35.9267 102.287 35.38 101.7 35.02C101.127 34.6467 100.427 34.46 99.6 34.46C98.7733 34.46 98.0467 34.6533 97.42 35.04C96.8067 35.4267 96.3267 35.9933 95.98 36.74C95.6333 37.4733 95.46 38.36 95.46 39.4C95.46 40.4533 95.6133 41.3533 95.92 42.1C96.2267 42.8333 96.6867 43.3933 97.3 43.78C97.9267 44.1667 98.6933 44.36 99.6 44.36C100.093 44.36 100.553 44.3 100.98 44.18C101.407 44.0467 101.78 43.86 102.1 43.62C102.42 43.3667 102.667 43.0533 102.84 42.68C103.027 42.2933 103.12 41.84 103.12 41.32V40.94H99.28V39.2H105.02V46H103.42L103.3 43.34L103.7 43.54C103.38 44.38 102.847 45.0333 102.1 45.5C101.367 45.9667 100.44 46.2 99.32 46.2ZM108.433 46V32.8H117.993V34.64H110.573V38.44H116.373V40.24H110.573V44.16H118.273V46H108.433ZM130.968 32.8V34.64H126.448V46H124.308V34.64H119.788V32.8H130.968ZM141.686 32.8V46H139.546V32.8H141.686ZM155.421 32.8V34.64H150.901V46H148.761V34.64H144.241V32.8H155.421ZM169.479 32.6C170.759 32.6 171.866 32.8733 172.799 33.42C173.732 33.9667 174.452 34.7467 174.959 35.76C175.466 36.7733 175.719 37.9867 175.719 39.4C175.719 40.8133 175.466 42.0267 174.959 43.04C174.452 44.0533 173.732 44.8333 172.799 45.38C171.866 45.9267 170.759 46.2 169.479 46.2C168.212 46.2 167.112 45.9267 166.179 45.38C165.246 44.8333 164.526 44.0533 164.019 43.04C163.512 42.0267 163.259 40.8133 163.259 39.4C163.259 37.9867 163.512 36.7733 164.019 35.76C164.526 34.7467 165.246 33.9667 166.179 33.42C167.112 32.8733 168.212 32.6 169.479 32.6ZM169.479 34.46C168.652 34.46 167.939 34.6533 167.339 35.04C166.752 35.4267 166.299 35.9867 165.979 36.72C165.659 37.4533 165.499 38.3467 165.499 39.4C165.499 40.44 165.659 41.3333 165.979 42.08C166.299 42.8133 166.752 43.3733 167.339 43.76C167.939 44.1467 168.652 44.34 169.479 44.34C170.319 44.34 171.032 44.1467 171.619 43.76C172.219 43.3733 172.679 42.8133 172.999 42.08C173.319 41.3333 173.479 40.44 173.479 39.4C173.479 38.3467 173.319 37.4533 172.999 36.72C172.679 35.9867 172.219 35.4267 171.619 35.04C171.032 34.6533 170.319 34.46 169.479 34.46ZM189.721 32.8V46H187.181L182.081 37.68L180.801 35.34H180.781L180.861 37.48V46H178.901V32.8H181.421L186.501 41.1L187.801 43.48H187.821L187.741 41.32V32.8H189.721ZM103.424 81.32C101.483 81.32 99.776 80.8933 98.304 80.04C96.8533 79.1867 95.7227 77.9493 94.912 76.328C94.1013 74.7067 93.696 72.7547 93.696 70.472C93.696 68.2107 94.1227 66.2693 94.976 64.648C95.8293 63.0053 97.0347 61.7467 98.592 60.872C100.171 59.9973 101.995 59.56 104.064 59.56C106.347 59.56 108.192 59.9867 109.6 60.84C111.008 61.672 112.128 62.9733 112.96 64.744L108.864 66.504C108.523 65.3733 107.936 64.5413 107.104 64.008C106.293 63.4533 105.291 63.176 104.096 63.176C102.901 63.176 101.867 63.464 100.992 64.04C100.117 64.5947 99.4453 65.416 98.976 66.504C98.5067 67.5707 98.272 68.8827 98.272 70.44C98.272 72.04 98.496 73.3947 98.944 74.504C99.392 75.592 100.053 76.4133 100.928 76.968C101.824 77.5013 102.923 77.768 104.224 77.768C104.928 77.768 105.579 77.6827 106.176 77.512C106.795 77.3413 107.328 77.0853 107.776 76.744C108.224 76.4027 108.576 75.9653 108.832 75.432C109.088 74.8987 109.216 74.28 109.216 73.576V73.096H103.68V69.864H113.024V81H109.92L109.6 76.392L110.368 76.936C109.899 78.344 109.067 79.432 107.872 80.2C106.699 80.9467 105.216 81.32 103.424 81.32ZM124.725 64.68C126.346 64.68 127.765 65.0107 128.981 65.672C130.218 66.3333 131.178 67.2827 131.861 68.52C132.565 69.7573 132.917 71.2507 132.917 73C132.917 74.728 132.565 76.2213 131.861 77.48C131.178 78.7173 130.218 79.6667 128.981 80.328C127.765 80.9893 126.346 81.32 124.725 81.32C123.125 81.32 121.706 80.9893 120.469 80.328C119.232 79.6667 118.261 78.7173 117.557 77.48C116.874 76.2213 116.533 74.728 116.533 73C116.533 71.2507 116.874 69.7573 117.557 68.52C118.261 67.2827 119.232 66.3333 120.469 65.672C121.706 65.0107 123.125 64.68 124.725 64.68ZM124.725 67.944C123.914 67.944 123.221 68.136 122.645 68.52C122.09 68.8827 121.664 69.4373 121.365 70.184C121.066 70.9307 120.917 71.8693 120.917 73C120.917 74.1307 121.066 75.0693 121.365 75.816C121.664 76.5627 122.09 77.128 122.645 77.512C123.221 77.8747 123.914 78.056 124.725 78.056C125.514 78.056 126.186 77.8747 126.741 77.512C127.317 77.128 127.754 76.5627 128.053 75.816C128.352 75.0693 128.501 74.1307 128.501 73C128.501 71.8693 128.352 70.9307 128.053 70.184C127.754 69.4373 127.317 68.8827 126.741 68.52C126.186 68.136 125.514 67.944 124.725 67.944ZM143.881 64.68C145.503 64.68 146.921 65.0107 148.137 65.672C149.375 66.3333 150.335 67.2827 151.017 68.52C151.721 69.7573 152.073 71.2507 152.073 73C152.073 74.728 151.721 76.2213 151.017 77.48C150.335 78.7173 149.375 79.6667 148.137 80.328C146.921 80.9893 145.503 81.32 143.881 81.32C142.281 81.32 140.863 80.9893 139.625 80.328C138.388 79.6667 137.417 78.7173 136.713 77.48C136.031 76.2213 135.689 74.728 135.689 73C135.689 71.2507 136.031 69.7573 136.713 68.52C137.417 67.2827 138.388 66.3333 139.625 65.672C140.863 65.0107 142.281 64.68 143.881 64.68ZM143.881 67.944C143.071 67.944 142.377 68.136 141.801 68.52C141.247 68.8827 140.82 69.4373 140.521 70.184C140.223 70.9307 140.073 71.8693 140.073 73C140.073 74.1307 140.223 75.0693 140.521 75.816C140.82 76.5627 141.247 77.128 141.801 77.512C142.377 77.8747 143.071 78.056 143.881 78.056C144.671 78.056 145.343 77.8747 145.897 77.512C146.473 77.128 146.911 76.5627 147.209 75.816C147.508 75.0693 147.657 74.1307 147.657 73C147.657 71.8693 147.508 70.9307 147.209 70.184C146.911 69.4373 146.473 68.8827 145.897 68.52C145.343 68.136 144.671 67.944 143.881 67.944ZM170.369 61.192L170.881 64.328C170.795 64.328 170.699 64.328 170.593 64.328C170.507 64.3067 170.411 64.296 170.305 64.296C169.323 64.296 168.587 64.52 168.097 64.968C167.606 65.3947 167.361 65.992 167.361 66.76L165.569 66.024C165.569 65.1707 165.739 64.3813 166.081 63.656C166.422 62.9093 166.923 62.312 167.585 61.864C168.267 61.416 169.078 61.192 170.017 61.192C170.059 61.192 170.113 61.192 170.177 61.192C170.241 61.192 170.305 61.192 170.369 61.192ZM165.121 77.992C166.849 77.992 168.182 78.3653 169.121 79.112C170.059 79.8587 170.529 80.904 170.529 82.248C170.529 83.464 170.177 84.488 169.472 85.32C168.769 86.1733 167.777 86.8133 166.497 87.24C165.238 87.6667 163.777 87.88 162.113 87.88C159.361 87.88 157.345 87.496 156.065 86.728C154.806 85.96 154.177 84.9573 154.177 83.72C154.177 82.8453 154.507 82.1093 155.169 81.512C155.851 80.9147 156.971 80.584 158.529 80.52L158.369 81.032C157.259 80.84 156.406 80.4773 155.809 79.944C155.233 79.3893 154.945 78.632 154.945 77.672C154.945 76.6907 155.318 75.8907 156.065 75.272C156.833 74.632 157.867 74.2587 159.169 74.152L161.089 75.048H160.641C159.723 75.112 159.073 75.304 158.689 75.624C158.326 75.9227 158.145 76.264 158.145 76.648C158.145 77.096 158.315 77.4373 158.657 77.672C159.019 77.8853 159.531 77.992 160.193 77.992H165.121ZM162.145 84.872C163.254 84.872 164.161 84.776 164.865 84.584C165.59 84.392 166.123 84.1467 166.465 83.848C166.827 83.5493 167.009 83.2187 167.009 82.856C167.009 82.4507 166.849 82.12 166.529 81.864C166.209 81.6293 165.633 81.512 164.801 81.512H159.393C158.881 81.512 158.454 81.64 158.113 81.896C157.793 82.152 157.633 82.504 157.633 82.952C157.633 83.5493 158.027 84.0187 158.817 84.36C159.627 84.7013 160.737 84.872 162.145 84.872ZM162.177 64.68C163.67 64.68 164.961 64.904 166.049 65.352C167.158 65.7787 168.001 66.3973 168.577 67.208C169.174 68.0187 169.472 68.9893 169.472 70.12C169.472 71.2293 169.174 72.1893 168.577 73C168.001 73.8107 167.158 74.44 166.049 74.888C164.961 75.3147 163.67 75.528 162.177 75.528C159.809 75.528 157.995 75.048 156.737 74.088C155.499 73.1067 154.881 71.784 154.881 70.12C154.881 68.9893 155.169 68.0187 155.745 67.208C156.342 66.3973 157.185 65.7787 158.273 65.352C159.361 64.904 160.662 64.68 162.177 64.68ZM162.177 67.432C161.323 67.432 160.619 67.6667 160.065 68.136C159.51 68.6053 159.233 69.256 159.233 70.088C159.233 70.92 159.51 71.5813 160.065 72.072C160.619 72.5413 161.323 72.776 162.177 72.776C163.03 72.776 163.723 72.5413 164.257 72.072C164.811 71.5813 165.089 70.92 165.089 70.088C165.089 69.256 164.811 68.6053 164.257 68.136C163.723 67.6667 163.03 67.432 162.177 67.432ZM177.499 57.992V76.072C177.499 76.8187 177.627 77.3413 177.883 77.64C178.139 77.9387 178.566 78.088 179.163 78.088C179.526 78.088 179.824 78.0667 180.059 78.024C180.294 77.96 180.592 77.8747 180.955 77.768L180.571 80.648C180.208 80.8613 179.75 81.0213 179.195 81.128C178.662 81.256 178.128 81.32 177.595 81.32C176.038 81.32 174.896 80.9467 174.171 80.2C173.467 79.432 173.115 78.216 173.115 76.552V57.992H177.499ZM190.822 81.32C189.136 81.32 187.664 80.9893 186.406 80.328C185.168 79.6667 184.208 78.7173 183.526 77.48C182.843 76.2427 182.502 74.7493 182.502 73C182.502 71.2507 182.843 69.7573 183.526 68.52C184.208 67.2827 185.158 66.3333 186.374 65.672C187.611 65.0107 189.019 64.68 190.598 64.68C192.219 64.68 193.595 65.0107 194.726 65.672C195.856 66.312 196.72 67.1973 197.318 68.328C197.915 69.4373 198.214 70.7067 198.214 72.136C198.214 72.5627 198.203 72.968 198.182 73.352C198.16 73.736 198.128 74.0773 198.086 74.376H185.318V71.336H196.166L194.054 72.104C194.054 70.76 193.744 69.7253 193.126 69C192.528 68.2747 191.675 67.912 190.566 67.912C189.755 67.912 189.051 68.104 188.454 68.488C187.878 68.872 187.44 69.448 187.142 70.216C186.843 70.9627 186.694 71.912 186.694 73.064C186.694 74.1947 186.854 75.1333 187.174 75.88C187.515 76.6053 187.984 77.1493 188.582 77.512C189.2 77.8747 189.936 78.056 190.79 78.056C191.728 78.056 192.486 77.8747 193.062 77.512C193.638 77.1493 194.086 76.648 194.406 76.008L197.894 77.352C197.552 78.184 197.03 78.8987 196.326 79.496C195.643 80.0933 194.822 80.552 193.862 80.872C192.923 81.1707 191.91 81.32 190.822 81.32ZM221.022 59.88C222.644 59.88 224.03 60.1573 225.182 60.712C226.334 61.2453 227.22 62.024 227.838 63.048C228.478 64.0507 228.798 65.2667 228.798 66.696C228.798 68.1253 228.478 69.352 227.838 70.376C227.22 71.3787 226.334 72.1573 225.182 72.712C224.03 73.2453 222.644 73.512 221.022 73.512H216.574V81H212.158V59.88H221.022ZM220.35 70.024C221.673 70.024 222.665 69.7467 223.326 69.192C223.988 68.616 224.318 67.784 224.318 66.696C224.318 65.5867 223.988 64.7547 223.326 64.2C222.665 63.6453 221.673 63.368 220.35 63.368H216.574V70.024H220.35ZM236.718 57.992V76.072C236.718 76.8187 236.846 77.3413 237.102 77.64C237.358 77.9387 237.784 78.088 238.382 78.088C238.744 78.088 239.043 78.0667 239.278 78.024C239.512 77.96 239.811 77.8747 240.174 77.768L239.79 80.648C239.427 80.8613 238.968 81.0213 238.414 81.128C237.88 81.256 237.347 81.32 236.814 81.32C235.256 81.32 234.115 80.9467 233.39 80.2C232.686 79.432 232.334 78.216 232.334 76.552V57.992H236.718ZM251.893 70.792C251.893 69.8747 251.626 69.16 251.093 68.648C250.581 68.136 249.898 67.88 249.045 67.88C248.255 67.88 247.562 68.0827 246.965 68.488C246.367 68.8933 245.93 69.5653 245.653 70.504L241.909 69.352C242.271 67.944 243.061 66.8133 244.277 65.96C245.514 65.1067 247.167 64.68 249.237 64.68C250.645 64.68 251.871 64.904 252.917 65.352C253.962 65.7787 254.773 66.4293 255.349 67.304C255.946 68.1787 256.245 69.2773 256.245 70.6V77.096C256.245 77.9067 256.629 78.312 257.397 78.312C257.759 78.312 258.101 78.2587 258.421 78.152L258.165 80.872C257.61 81.1493 256.917 81.288 256.085 81.288C255.338 81.288 254.666 81.16 254.069 80.904C253.471 80.648 253.002 80.264 252.661 79.752C252.319 79.2187 252.149 78.5573 252.149 77.768V77.64L252.917 77.512C252.789 78.3227 252.437 79.016 251.861 79.592C251.285 80.1467 250.581 80.5733 249.749 80.872C248.938 81.1707 248.095 81.32 247.221 81.32C246.133 81.32 245.194 81.16 244.405 80.84C243.615 80.4987 243.007 80.008 242.581 79.368C242.154 78.728 241.941 77.9387 241.941 77C241.941 75.8053 242.325 74.8347 243.093 74.088C243.861 73.32 244.959 72.7973 246.389 72.52L252.405 71.304L252.373 74.024L248.533 74.792C247.807 74.9413 247.253 75.144 246.869 75.4C246.506 75.6347 246.325 76.0293 246.325 76.584C246.325 77.1173 246.517 77.5227 246.901 77.8C247.306 78.0773 247.786 78.216 248.341 78.216C248.789 78.216 249.226 78.1627 249.653 78.056C250.079 77.9493 250.463 77.7787 250.805 77.544C251.146 77.3093 251.413 76.9893 251.605 76.584C251.797 76.1787 251.893 75.688 251.893 75.112V70.792ZM275.188 65L268.724 81.992C268.212 83.4427 267.636 84.5947 266.996 85.448C266.377 86.3013 265.652 86.92 264.82 87.304C264.009 87.688 263.038 87.88 261.908 87.88C261.076 87.88 260.308 87.7733 259.604 87.56C258.921 87.368 258.324 87.112 257.812 86.792L258.74 83.624C259.145 83.944 259.572 84.168 260.02 84.296C260.468 84.4453 260.98 84.52 261.556 84.52C262.153 84.52 262.665 84.392 263.092 84.136C263.54 83.88 263.913 83.368 264.212 82.6L264.756 81.224L262.996 77.064L258.1 65H262.964L266.004 74.6L266.836 77.8L267.828 74.408L270.74 65H275.188Z" fill="white"/>
<g clip-path="url(#clip0_104_100)">
<path d="M57.1472 53.4062L38.1698 74.024C38.3829 74.8071 38.7659 75.5294 39.2894 76.1356C39.813 76.7417 40.4632 77.2158 41.1905 77.5214C41.9178 77.827 42.7029 77.9561 43.4857 77.8989C44.2685 77.8417 45.0283 77.5996 45.707 77.1912L67.0602 64.5803L57.1472 53.4062Z" fill="#EA4335"/>
<path d="M76.3366 49.9015L67.1028 44.417L56.709 53.8751L67.1451 64.5506L76.3086 59.1248C77.1204 58.6841 77.8003 58.0213 78.2747 57.2083C78.7492 56.3954 79 55.4633 79 54.5131C79 53.5629 78.7492 52.6308 78.2747 51.8179C77.8003 51.0049 77.1204 50.3422 76.3086 49.9014L76.3366 49.9015Z" fill="#FBBC04"/>
<path d="M38.1698 34.9004C38.0551 35.3402 37.998 35.7939 38 36.2494V72.6748C38.0011 73.1302 38.0582 73.5835 38.1698 74.024L57.7977 53.9342L38.1698 34.9004Z" fill="#4285F4"/>
<path d="M57.2886 54.4625L67.1026 44.4176L45.7778 31.7479C44.9755 31.2606 44.063 31.0026 43.1332 31C40.8258 30.9954 38.7973 32.5834 38.1698 34.8861L57.2886 54.4625Z" fill="#34A853"/>
</g>
<defs>
<clipPath id="clip0_104_100">
<rect width="41" height="47" fill="white" transform="translate(38 31)"/>
</clipPath>
</defs>
</svg>
